<?xml version="1.0" standalone="no"?><svg xmlns="http://www.w3.org/2000/svg" viewBox="0 0 1440 320"><path fill="#24404b" fill-opacity="1" d="M0,224L18.5,208C36.9,192,74,160,111,160C147.7,160,185,192,222,208C258.5,224,295,224,332,186.7C369.2,149,406,75,443,90.7C480,107,517,213,554,234.7C590.8,256,628,192,665,186.7C701.5,181,738,235,775,224C812.3,213,849,139,886,128C923.1,117,960,171,997,181.3C1033.8,192,1071,160,1108,154.7C1144.6,149,1182,171,1218,176C1255.4,181,1292,171,1329,149.3C1366.2,128,1403,96,1422,80L1440,64L1440,320L1421.5,320C1403.1,320,1366,320,1329,320C1292.3,320,1255,320,1218,320C1181.5,320,1145,320,1108,320C1070.8,320,1034,320,997,320C960,320,923,320,886,320C849.2,320,812,320,775,320C738.5,320,702,320,665,320C627.7,320,591,320,554,320C516.9,320,480,320,443,320C406.2,320,369,320,332,320C295.4,320,258,320,222,320C184.6,320,148,320,111,320C73.8,320,37,320,18,320L0,320Z"></path></svg>