<?xml version="1.0" standalone="no"?><svg xmlns="http://www.w3.org/2000/svg" viewBox="0 0 1440 320"><path fill="#398b8e" fill-opacity="1" d="M0,96L13.3,128C26.7,160,53,224,80,229.3C106.7,235,133,181,160,176C186.7,171,213,213,240,202.7C266.7,192,293,128,320,138.7C346.7,149,373,235,400,266.7C426.7,299,453,277,480,229.3C506.7,181,533,107,560,112C586.7,117,613,203,640,240C666.7,277,693,267,720,240C746.7,213,773,171,800,160C826.7,149,853,171,880,192C906.7,213,933,235,960,256C986.7,277,1013,299,1040,304C1066.7,309,1093,299,1120,256C1146.7,213,1173,139,1200,90.7C1226.7,43,1253,21,1280,37.3C1306.7,53,1333,107,1360,122.7C1386.7,139,1413,117,1427,106.7L1440,96L1440,320L1426.7,320C1413.3,320,1387,320,1360,320C1333.3,320,1307,320,1280,320C1253.3,320,1227,320,1200,320C1173.3,320,1147,320,1120,320C1093.3,320,1067,320,1040,320C1013.3,320,987,320,960,320C933.3,320,907,320,880,320C853.3,320,827,320,800,320C773.3,320,747,320,720,320C693.3,320,667,320,640,320C613.3,320,587,320,560,320C533.3,320,507,320,480,320C453.3,320,427,320,400,320C373.3,320,347,320,320,320C293.3,320,267,320,240,320C213.3,320,187,320,160,320C133.3,320,107,320,80,320C53.3,320,27,320,13,320L0,320Z"></path></svg>