<?xml version="1.0" standalone="no"?><svg xmlns="http://www.w3.org/2000/svg" viewBox="0 0 1440 320"><path fill="#336e7f" fill-opacity="1" d="M0,224L18.5,218.7C36.9,213,74,203,111,170.7C147.7,139,185,85,222,106.7C258.5,128,295,224,332,234.7C369.2,245,406,171,443,160C480,149,517,203,554,186.7C590.8,171,628,85,665,90.7C701.5,96,738,192,775,213.3C812.3,235,849,181,886,144C923.1,107,960,85,997,90.7C1033.8,96,1071,128,1108,149.3C1144.6,171,1182,181,1218,197.3C1255.4,213,1292,235,1329,208C1366.2,181,1403,107,1422,69.3L1440,32L1440,320L1421.5,320C1403.1,320,1366,320,1329,320C1292.3,320,1255,320,1218,320C1181.5,320,1145,320,1108,320C1070.8,320,1034,320,997,320C960,320,923,320,886,320C849.2,320,812,320,775,320C738.5,320,702,320,665,320C627.7,320,591,320,554,320C516.9,320,480,320,443,320C406.2,320,369,320,332,320C295.4,320,258,320,222,320C184.6,320,148,320,111,320C73.8,320,37,320,18,320L0,320Z"></path></svg>